<?xml version="1.0" encoding="UTF-8" standalone="no"?>
<!-- Generator: Adobe Illustrator 15.1.0, SVG Export Plug-In . SVG Version: 6.00 Build 0)  -->

<svg
   xmlns:dc="http://purl.org/dc/elements/1.1/"
   xmlns:cc="http://creativecommons.org/ns#"
   xmlns:rdf="http://www.w3.org/1999/02/22-rdf-syntax-ns#"
   xmlns:svg="http://www.w3.org/2000/svg"
   xmlns="http://www.w3.org/2000/svg"
   xmlns:sodipodi="http://sodipodi.sourceforge.net/DTD/sodipodi-0.dtd"
   xmlns:inkscape="http://www.inkscape.org/namespaces/inkscape"
   version="1.0"
   id="trezor"
   inkscape:export-ydpi="300"
   inkscape:export-xdpi="300"
   inkscape:export-filename="/home/stick/work/bitcoin/share-bitkey/logo/logo-black-horiz-2.png"
   sodipodi:docname="TrezorHash.svg"
   inkscape:version="0.48.5 r10040"
   x="0px"
   y="0px"
   width="100%"
   height="100%"
   viewBox="0 0 143.16487 199.66156"
   enable-background="new 0 0 685.984 210"
   xml:space="preserve"
   style="fill:#ffffff"><metadata
     id="metadata15"><rdf:RDF><cc:Work
         rdf:about=""><dc:format>image/svg+xml</dc:format><dc:type
           rdf:resource="http://purl.org/dc/dcmitype/StillImage" /><dc:title /></cc:Work></rdf:RDF></metadata><defs
     id="defs13" /><sodipodi:namedview
     fit-margin-bottom="0"
     fit-margin-right="0"
     fit-margin-top="0"
     fit-margin-left="0"
     gridtolerance="10"
     inkscape:current-layer="trezor"
     inkscape:window-maximized="1"
     inkscape:window-y="27"
     inkscape:window-x="0"
     inkscape:cx="36.584647"
     inkscape:window-height="2094"
     inkscape:cy="-41.063514"
     showgrid="false"
     inkscape:window-width="3840"
     inkscape:pageshadow="2"
     inkscape:zoom="3.0512366"
     inkscape:pageopacity="0"
     guidetolerance="10"
     pagecolor="#ffffff"
     bordercolor="#666666"
     objecttolerance="10"
     borderopacity="1"
     id="namedview30"
     showborder="true" /><rect
     id="rect25"
     x="111.73967"
     y="712.35223"
     display="none"
     width="11"
     height="35"
     style="fill:#ffffff;stroke:#000000;stroke-width:1;display:none" /><g
     id="g3017"
     transform="translate(-922.11304,-830.52253)"><path
       inkscape:connector-curvature="0"
       id="path7-36-7"
       d="m 993.71952,884.93882 c 38.87708,0.0644 71.55838,3.06445 71.55838,8.79855 0,0 0,106.62323 0,108.20003 0,1.579 -0.2408,1.8449 -1.6863,2.4121 -1.4436,0.5693 -66.4674,24.9163 -66.4674,24.9163 0,0 -2.66879,0.9183 -3.40267,0.9183 -0.83213,0 -3.50293,-0.9557 -3.50293,-0.9557 0,0 -64.99566,-24.3242 -66.45538,-24.8955 -1.46172,-0.5693 -1.65019,-0.8643 -1.65019,-2.4557 0,-1.7535 0,-108.14399 0,-108.14399 0,-5.88993 32.73143,-8.8588 71.60649,-8.79439 z"
       style="fill:#f2f2f2" /><path
       inkscape:connector-curvature="0"
       id="path3007"
       d="m 993.71251,830.52253 c 33.74949,0 54.28169,20.49321 54.28169,54.24271 v 33.84203 c -38.1058,-2.77594 -70.4868,-2.77594 -108.59744,0 v -33.84203 c 0,-33.75194 20.56138,-54.24271 54.31575,-54.24271 z"
       style="fill:#f2f2f2" /><path
       style="fill:#000000"
       d="m 993.75398,841.29457 c -23.563,0 -42.667,19.103 -42.667,42.667 v 15.953 c -8.269,1.479 -16.614,3.522 -16.614,6.133 v 83.586 c 0,0 0,2.344 2.553,3.359 9.427,3.751 46.438,16.86903 54.932,19.87303 1.119,0.396 1.355,0.385 1.743,0.385 0.408,0 0.619,0.014 1.729,-0.379 8.47802,-2.997 45.61702,-16.14803 54.98502,-19.85703 2.433,-0.963 2.503,-3.347 2.503,-3.347 v -83.616 c 0,-2.61 -8.229,-4.658 -16.499,-6.138 v -15.953 c 10e-4,-23.563 -19.102,-42.666 -42.66502,-42.666 z m 0,20.391 c 13.86002,0 22.29202,8.416 22.29202,22.276 v 13.898 c -15.649,-1.14 -28.94702,-1.14 -44.59802,0 v -13.898 c 0,-13.861 8.444,-22.276 22.306,-22.276 z m -0.055,56.692 c 19.38902,0.031 35.68802,1.475 35.68802,4.235 0,0 0,51.321 0,52.08 0,0.76 -0.12,0.888 -0.841,1.161 -0.72,0.274 -33.14902,11.993 -33.14902,11.993 0,0 -1.331,0.442 -1.697,0.442 -0.415,0 -1.747,-0.46 -1.747,-0.46 0,0 -32.415,-11.708 -33.143,-11.983 -0.729,-0.274 -0.823,-0.416 -0.823,-1.182 0,-0.844 0,-52.053 0,-52.053 0,-2.835 16.324,-4.264 35.712,-4.233 z"
       inkscape:connector-curvature="0"
       id="path7-3" /></g><text
     xml:space="preserve"
     style="font-size:40px;font-style:normal;font-weight:normal;line-height:125%;letter-spacing:0px;word-spacing:0px;fill:#000000;fill-opacity:1;stroke:none;font-family:Sans"
     x="43.127346"
     y="145.81569"
     id="text2994"
     sodipodi:linespacing="125%"><tspan
       sodipodi:role="line"
       id="tspan2996"
       x="43.127346"
       y="145.81569"
       style="font-size:68px;font-weight:bold;-inkscape-font-specification:Sans Bold">H</tspan></text>
</svg>