<?xml version="1.0" encoding="UTF-8" standalone="no"?>
<!-- Generator: Adobe Illustrator 15.1.0, SVG Export Plug-In . SVG Version: 6.00 Build 0)  -->

<svg
   xmlns:dc="http://purl.org/dc/elements/1.1/"
   xmlns:cc="http://creativecommons.org/ns#"
   xmlns:rdf="http://www.w3.org/1999/02/22-rdf-syntax-ns#"
   xmlns:svg="http://www.w3.org/2000/svg"
   xmlns="http://www.w3.org/2000/svg"
   xmlns:sodipodi="http://sodipodi.sourceforge.net/DTD/sodipodi-0.dtd"
   xmlns:inkscape="http://www.inkscape.org/namespaces/inkscape"
   version="1.0"
   id="trezor"
   inkscape:export-ydpi="300"
   inkscape:export-xdpi="300"
   inkscape:export-filename="/home/stick/work/bitcoin/share-bitkey/logo/logo-black-horiz-2.png"
   sodipodi:docname="trezor.svg"
   inkscape:version="0.48.5 r10040"
   x="0px"
   y="0px"
   width="100%"
   height="100%"
   viewBox="0 0 38.041623 55.228063"
   enable-background="new 0 0 685.984 210"
   xml:space="preserve"
   style="fill:#ffffff"><metadata
     id="metadata15"><rdf:RDF><cc:Work
         rdf:about=""><dc:format>image/svg+xml</dc:format><dc:type
           rdf:resource="http://purl.org/dc/dcmitype/StillImage" /><dc:title></dc:title></cc:Work></rdf:RDF></metadata><defs
     id="defs13" /><sodipodi:namedview
     fit-margin-bottom="0"
     fit-margin-right="0"
     fit-margin-top="0"
     fit-margin-left="0"
     gridtolerance="10"
     inkscape:current-layer="trezor"
     inkscape:window-maximized="1"
     inkscape:window-y="27"
     inkscape:window-x="0"
     inkscape:cx="244.06128"
     inkscape:window-height="2094"
     inkscape:cy="-174.05771"
     showgrid="false"
     inkscape:window-width="3840"
     inkscape:pageshadow="2"
     inkscape:zoom="1"
     inkscape:pageopacity="0"
     guidetolerance="10"
     pagecolor="#ffffff"
     bordercolor="#666666"
     objecttolerance="10"
     borderopacity="1"
     id="namedview30" /><rect
     id="rect25"
     x="282.34601"
     y="698.29102"
     display="none"
     width="11"
     height="35"
     style="fill:#ffffff;stroke:#000000;stroke-width:1;display:none" /><path
     id="path7"
     inkscape:connector-curvature="0"
     d="M 19.039594,0 C 11.471737,0 5.3360024,6.135414 5.3360024,13.703591 v 5.123712 C 2.6802034,19.302321 -5.6477547e-6,19.958482 -5.6477547e-6,20.797072 V 47.64284 c 0,0 0,0.752835 0.8199609977547,1.078828 3.02772005,1.204729 14.91474365,5.417911 17.64280765,6.382716 0.359395,0.127186 0.435193,0.123658 0.559809,0.123658 0.131039,0 0.198807,0.0047 0.555312,-0.121731 2.722925,-0.962558 14.65106,-5.186337 17.659831,-6.377577 0.78142,-0.309292 0.803903,-1.074974 0.803903,-1.074974 V 20.798356 c 0,-0.838268 -2.642953,-1.496035 -5.299074,-1.971374 V 13.70327 C 32.742865,6.135414 26.607451,0 19.039594,0 z m 0,6.549088 c 4.451491,0 7.159643,2.703012 7.159643,7.154503 v 4.463696 c -5.026075,-0.366139 -9.297066,-0.366139 -14.323782,0 v -4.463696 c 0,-4.451812 2.712005,-7.154503 7.164139,-7.154503 z m -0.01767,18.208077 c 6.22727,0.01 11.462109,0.473733 11.462109,1.360178 0,0 0,16.483043 0,16.726815 0,0.244093 -0.03854,0.285204 -0.270108,0.372884 -0.231247,0.088 -10.646645,3.851857 -10.646645,3.851857 0,0 -0.427485,0.14196 -0.545035,0.14196 -0.133288,0 -0.561093,-0.147741 -0.561093,-0.147741 0,0 -10.4109006,-3.760322 -10.6447166,-3.848645 -0.234137,-0.088 -0.264327,-0.133609 -0.264327,-0.379629 0,-0.271072 0,-16.718144 0,-16.718144 0,-0.910532 5.2428666,-1.369492 11.4698156,-1.359535 z"
     style="fill:#000000" /></svg>