<?xml version="1.0" encoding="UTF-8" standalone="no"?>
<!-- Generator: Adobe Illustrator 15.1.0, SVG Export Plug-In . SVG Version: 6.00 Build 0)  -->

<svg
   xmlns:dc="http://purl.org/dc/elements/1.1/"
   xmlns:cc="http://creativecommons.org/ns#"
   xmlns:rdf="http://www.w3.org/1999/02/22-rdf-syntax-ns#"
   xmlns:svg="http://www.w3.org/2000/svg"
   xmlns="http://www.w3.org/2000/svg"
   xmlns:sodipodi="http://sodipodi.sourceforge.net/DTD/sodipodi-0.dtd"
   xmlns:inkscape="http://www.inkscape.org/namespaces/inkscape"
   version="1.0"
   id="trezor"
   inkscape:export-ydpi="300"
   inkscape:export-xdpi="300"
   inkscape:export-filename="/home/stick/work/bitcoin/share-bitkey/logo/logo-black-horiz-2.png"
   sodipodi:docname="TrezorHash.92x128.svg"
   inkscape:version="0.48.5 r10040"
   x="0px"
   y="0px"
   width="100%"
   height="100%"
   viewBox="0 0 88.167642 128"
   enable-background="new 0 0 685.984 210"
   xml:space="preserve"
   style="fill:#ffffff"><metadata
     id="metadata15"><rdf:RDF><cc:Work
         rdf:about=""><dc:format>image/svg+xml</dc:format><dc:type
           rdf:resource="http://purl.org/dc/dcmitype/StillImage" /><dc:title /></cc:Work></rdf:RDF></metadata><defs
     id="defs13" /><sodipodi:namedview
     fit-margin-bottom="0"
     fit-margin-right="0"
     fit-margin-top="0"
     fit-margin-left="0"
     gridtolerance="10"
     inkscape:current-layer="trezor"
     inkscape:window-maximized="1"
     inkscape:window-y="27"
     inkscape:window-x="0"
     inkscape:cx="213.74594"
     inkscape:window-height="2094"
     inkscape:cy="46.9616"
     showgrid="false"
     inkscape:window-width="3840"
     inkscape:pageshadow="2"
     inkscape:zoom="4.3151002"
     inkscape:pageopacity="0"
     guidetolerance="10"
     pagecolor="#ffffff"
     bordercolor="#666666"
     objecttolerance="10"
     borderopacity="1"
     id="namedview30" /><rect
     id="rect25"
     x="282.34601"
     y="654.33496"
     display="none"
     width="11"
     height="35"
     style="fill:#ffffff;stroke:#000000;stroke-width:1;display:none" /><path
     id="path7"
     inkscape:connector-curvature="0"
     d="m 44.127361,0 c -17.539737,0 -31.7603,14.219819 -31.7603,31.7603 V 43.635331 C 6.2118144,44.736271 -5.6477547e-6,46.257031 -5.6477547e-6,48.200591 v 62.219429 c 0,0 0,1.74482 1.9003920477547,2.50036 7.017235,2.79216 34.5673426,12.55688 40.8900746,14.79299 0.832957,0.29477 1.00863,0.28659 1.297448,0.28659 0.303705,0 0.460769,0.0104 1.287026,-0.28212 6.310822,-2.2309 33.956213,-12.02019 40.929533,-14.78108 1.81106,-0.71684 1.86317,-2.49143 1.86317,-2.49143 V 48.203571 c 0,-1.94282 -6.12547,-3.4673 -12.281463,-4.56898 V 31.759555 C 75.886919,14.219819 61.6671,0 44.127361,0 z m 0,15.178575 c 10.317054,0 16.593637,6.26467 16.593637,16.581725 v 10.345341 c -11.648746,-0.84859 -21.547461,-0.84859 -33.197693,0 V 31.7603 c 0,-10.317799 6.285512,-16.581725 16.604056,-16.581725 z m -0.04094,42.200176 c 14.43271,0.0231 26.565301,1.09796 26.565301,3.15243 0,0 0,38.20214 0,38.76712 0,0.56572 -0.08933,0.661 -0.62602,0.864219 -0.535951,0.20396 -24.67533,8.9273 -24.67533,8.9273 0,0 -0.990765,0.32902 -1.263207,0.32902 -0.308916,0 -1.300425,-0.34242 -1.300425,-0.34242 0,0 -24.128955,-8.71515 -24.670861,-8.91986 -0.54265,-0.203959 -0.612622,-0.309659 -0.612622,-0.879849 0,-0.62825 0,-38.74701 0,-38.74701 0,-2.11031 12.151198,-3.17402 26.583164,-3.15095 z"
     style="fill:#000000" /><text
     xml:space="preserve"
     style="font-size:29.77504921px;font-style:normal;font-weight:normal;line-height:125%;letter-spacing:0px;word-spacing:0px;fill:#000000;fill-opacity:1;stroke:none;font-family:Sans"
     x="22.902533"
     y="100.5145"
     id="text2994"
     sodipodi:linespacing="125%"><tspan
       sodipodi:role="line"
       id="tspan2996"
       x="22.902533"
       y="100.5145"
       style="font-size:50.61758423px;font-weight:bold;-inkscape-font-specification:Sans Bold">H</tspan></text>
</svg>